<svg width="34" height="34" viewBox="0 0 34 34" fill="none" xmlns="http://www.w3.org/2000/svg">
<path d="M22.5229 10.9346C28.9549 10.9346 32.1713 13.6707 32.1714 19.1426C32.1714 21.0146 31.9549 23.6069 31.5229 26.9189L31.3433 28.5029H25.4028L25.187 26.5225C23.555 28.0824 21.4552 28.8623 18.8872 28.8623C17.0393 28.8623 15.5149 28.3231 14.3149 27.2432C13.139 26.1632 12.5513 24.6388 12.5513 22.6709C12.5513 20.679 13.223 19.2386 14.5669 18.3506C15.9109 17.4386 17.5313 16.9824 19.4272 16.9824C21.3231 16.9824 22.9669 17.2829 24.3589 17.8828C24.0469 15.8909 22.7874 14.8946 20.5796 14.8945C19.5716 14.8945 18.3234 15.0989 16.8354 15.5068L15.9351 12.2666C18.095 11.3786 20.2911 10.9346 22.5229 10.9346ZM9.42432 28.5029H2.80029L1.82861 5.13867H10.397L9.42432 28.5029ZM22.6675 20.5107C21.9476 20.5107 21.3476 20.6909 20.8677 21.0508C20.4117 21.4108 20.1831 21.8548 20.1831 22.3828C20.1831 22.9108 20.3632 23.3791 20.7231 23.7871C21.0831 24.195 21.5515 24.3984 22.1274 24.3984C23.2072 24.3984 24.131 24.0988 24.8989 23.499L24.6831 21.123C24.0832 20.7151 23.4114 20.5108 22.6675 20.5107Z" fill="url(#paint0_linear_508_17841)"/>
<defs>
<linearGradient id="paint0_linear_508_17841" x1="1.82861" y1="17.0005" x2="32.1714" y2="17.0005" gradientUnits="userSpaceOnUse">
<stop stop-color="#2BB2FE"/>
<stop offset="1" stop-color="#22CAAD"/>
</linearGradient>
</defs>
</svg>
