<svg width="118" height="24" viewBox="0 0 118 24" fill="none" xmlns="http://www.w3.org/2000/svg">
<path d="M20.6943 5.93457C27.1263 5.93457 30.3427 8.67065 30.3428 14.1426C30.3428 16.0146 30.1263 18.6069 29.6943 21.9189L29.5146 23.5029H23.5742L23.3584 21.5225C21.7264 23.0824 19.6266 23.8623 17.0586 23.8623C15.2106 23.8623 13.6863 23.3231 12.4863 22.2432C11.3104 21.1632 10.7227 19.6388 10.7227 17.6709C10.7227 15.679 11.3944 14.2386 12.7383 13.3506C14.0823 12.4386 15.7026 11.9824 17.5986 11.9824C19.4945 11.9824 21.1383 12.2829 22.5303 12.8828C22.2183 10.8909 20.9588 9.89463 18.751 9.89453C17.743 9.89453 16.4948 10.0989 15.0068 10.5068L14.1064 7.2666C16.2663 6.37864 18.4624 5.93461 20.6943 5.93457ZM53.9961 5.93457C60.428 5.93458 63.6445 8.67067 63.6445 14.1426C63.6445 16.0146 63.4281 18.6069 62.9961 21.9189L62.8164 23.5029H56.876L56.6602 21.5225C55.0282 23.0824 52.9282 23.8622 50.3604 23.8623C48.5125 23.8623 46.988 23.323 45.7881 22.2432C44.6121 21.1632 44.0245 19.6388 44.0244 17.6709C44.0244 15.6789 44.696 14.2386 46.04 13.3506C47.384 12.4386 49.0044 11.9824 50.9004 11.9824C52.7962 11.9825 54.4401 12.2828 55.832 12.8828C55.52 10.8908 54.2598 9.89453 52.0518 9.89453C51.0438 9.89457 49.7955 10.0989 48.3076 10.5068L47.4082 7.2666C49.5681 6.37865 51.7641 5.93457 53.9961 5.93457ZM75.1143 5.93457C76.2422 5.93458 77.3226 6.0428 78.3545 6.25879C79.4103 6.47476 80.1783 6.70242 80.6582 6.94238L81.3779 7.2666L80.5859 10.9746C79.6021 10.6867 78.5822 10.543 77.5264 10.543C76.4944 10.543 75.5456 10.8788 74.6816 11.5508C73.8419 12.1987 73.422 13.2066 73.4219 14.5742C73.4219 17.6462 74.6103 19.1826 76.9863 19.1826C77.6102 19.1826 78.2102 19.1108 78.7861 18.9668C79.362 18.7988 79.7819 18.6308 80.0459 18.4629L80.4424 18.2471L82.4941 20.9824C80.6941 22.9024 78.2818 23.8623 75.2578 23.8623C72.2582 23.8623 69.9303 23.0589 68.2744 21.4512C66.6184 19.8192 65.79 17.5262 65.79 14.5742C65.7901 11.6225 66.6782 9.45052 68.4541 8.05859C70.2301 6.64264 72.4503 5.93457 75.1143 5.93457ZM92.9072 5.93457C94.0352 5.93457 95.1155 6.04279 96.1475 6.25879C97.2032 6.47475 97.9712 6.70243 98.4512 6.94238L99.1709 7.2666L98.3789 10.9746C97.395 10.6867 96.3752 10.543 95.3193 10.543C94.2874 10.543 93.3395 10.8789 92.4756 11.5508C91.6357 12.1987 91.2149 13.2065 91.2148 14.5742C91.2148 17.6462 92.4033 19.1826 94.7793 19.1826C95.4032 19.1826 96.0032 19.1108 96.5791 18.9668C97.1548 18.7989 97.5748 18.6308 97.8389 18.4629L98.2354 18.2471L100.287 20.9824C98.4871 22.9024 96.0748 23.8623 93.0508 23.8623C90.0512 23.8622 87.7233 23.0589 86.0674 21.4512C84.4114 19.8192 83.583 17.5262 83.583 14.5742C83.5831 11.6225 84.4712 9.45052 86.2471 8.05859C88.0231 6.6426 90.2432 5.93457 92.9072 5.93457ZM109.729 5.93457C110.88 5.93457 112.008 6.03069 113.112 6.22266C114.216 6.41466 115.045 6.60683 115.597 6.79883L116.389 7.12305L115.488 10.7588C114.121 10.2549 112.957 10.003 111.997 10.0029C111.037 10.0029 110.557 10.3751 110.557 11.1191C110.557 11.479 110.784 11.8272 111.24 12.1631C111.696 12.4751 112.249 12.7866 112.896 13.0986C113.544 13.4106 114.193 13.7707 114.841 14.1787C115.489 14.5627 116.041 15.1029 116.497 15.7988C116.953 16.4707 117.181 17.2387 117.181 18.1025C117.181 19.4705 116.724 20.6105 115.812 21.5225C114.9 22.4345 113.845 23.0585 112.645 23.3945C111.469 23.7065 110.329 23.8623 109.225 23.8623C108.121 23.8623 107.149 23.7905 106.309 23.6465C105.493 23.5025 104.797 23.3346 104.221 23.1426C103.165 22.7346 102.324 22.3502 101.7 21.9902L101.377 21.7744L102.961 18.499C104.401 19.3149 105.613 19.7227 106.597 19.7227C107.58 19.7226 108.072 19.3148 108.072 18.499C108.072 18.091 107.761 17.6703 107.137 17.2383C106.513 16.8064 105.829 16.3986 105.085 16.0146C104.365 15.6307 103.692 15.0429 103.068 14.251C102.444 13.459 102.133 12.5466 102.133 11.5146C102.133 9.66667 102.829 8.27486 104.221 7.33887C105.613 6.40288 107.449 5.93458 109.729 5.93457ZM7.5957 23.5029H0.97168L0 0.138672H8.56836L7.5957 23.5029ZM20.8389 15.5107C20.119 15.5107 19.519 15.6909 19.0391 16.0508C18.5831 16.4108 18.3545 16.8548 18.3545 17.3828C18.3545 17.9108 18.5346 18.3791 18.8945 18.7871C19.2545 19.195 19.7229 19.3984 20.2988 19.3984C21.3786 19.3984 22.3024 19.0988 23.0703 18.499L22.8545 16.123C22.2545 15.7151 21.5828 15.5108 20.8389 15.5107ZM54.1396 15.5107C53.4198 15.5108 52.8198 15.6908 52.3398 16.0508C51.884 16.4108 51.6562 16.8549 51.6562 17.3828C51.6563 17.9108 51.8363 18.3791 52.1963 18.7871C52.5562 19.1948 53.024 19.3983 53.5996 19.3984C54.6795 19.3984 55.6041 19.0989 56.3721 18.499L56.1562 16.123C55.5563 15.715 54.8836 15.5107 54.1396 15.5107ZM41.8486 14.6104H32.6689V11.083H41.8486V14.6104Z" fill="url(#paint0_linear_653_3042)"/>
<defs>
<linearGradient id="paint0_linear_653_3042" x1="0" y1="12.0005" x2="117.181" y2="12.0005" gradientUnits="userSpaceOnUse">
<stop stop-color="#2BB2FE"/>
<stop offset="1" stop-color="#22CAAD"/>
</linearGradient>
</defs>
</svg>
