<svg width="216" height="34" viewBox="0 0 216 34" fill="none" xmlns="http://www.w3.org/2000/svg">
<path d="M20.6943 10.9346C27.1263 10.9346 30.3427 13.6707 30.3428 19.1426C30.3428 21.0146 30.1263 23.6069 29.6943 26.9189L29.5146 28.5029H23.5742L23.3584 26.5225C21.7264 28.0824 19.6266 28.8623 17.0586 28.8623C15.2106 28.8623 13.6863 28.3231 12.4863 27.2432C11.3104 26.1632 10.7227 24.6388 10.7227 22.6709C10.7227 20.679 11.3944 19.2386 12.7383 18.3506C14.0823 17.4386 15.7026 16.9824 17.5986 16.9824C19.4945 16.9824 21.1383 17.2829 22.5303 17.8828C22.2183 15.8909 20.9588 14.8946 18.751 14.8945C17.743 14.8945 16.4948 15.0989 15.0068 15.5068L14.1064 12.2666C16.2663 11.3786 18.4624 10.9346 20.6943 10.9346ZM53.9961 10.9346C60.428 10.9346 63.6445 13.6707 63.6445 19.1426C63.6445 21.0146 63.4281 23.6069 62.9961 26.9189L62.8164 28.5029H56.876L56.6602 26.5225C55.0282 28.0824 52.9282 28.8622 50.3604 28.8623C48.5125 28.8623 46.988 28.323 45.7881 27.2432C44.6121 26.1632 44.0245 24.6388 44.0244 22.6709C44.0244 20.6789 44.696 19.2386 46.04 18.3506C47.384 17.4386 49.0044 16.9824 50.9004 16.9824C52.7962 16.9825 54.4401 17.2828 55.832 17.8828C55.52 15.8908 54.2598 14.8945 52.0518 14.8945C51.0438 14.8946 49.7955 15.0989 48.3076 15.5068L47.4082 12.2666C49.5681 11.3786 51.7641 10.9346 53.9961 10.9346ZM75.1143 10.9346C76.2422 10.9346 77.3226 11.0428 78.3545 11.2588C79.4103 11.4748 80.1783 11.7024 80.6582 11.9424L81.3779 12.2666L80.5859 15.9746C79.6021 15.6867 78.5822 15.543 77.5264 15.543C76.4944 15.543 75.5456 15.8788 74.6816 16.5508C73.8419 17.1987 73.422 18.2066 73.4219 19.5742C73.4219 22.6462 74.6103 24.1826 76.9863 24.1826C77.6102 24.1826 78.2102 24.1108 78.7861 23.9668C79.362 23.7988 79.7819 23.6308 80.0459 23.4629L80.4424 23.2471L82.4941 25.9824C80.6941 27.9024 78.2818 28.8623 75.2578 28.8623C72.2582 28.8623 69.9303 28.0589 68.2744 26.4512C66.6184 24.8192 65.79 22.5262 65.79 19.5742C65.7901 16.6225 66.6782 14.4505 68.4541 13.0586C70.2301 11.6426 72.4503 10.9346 75.1143 10.9346ZM92.9072 10.9346C94.0352 10.9346 95.1155 11.0428 96.1475 11.2588C97.2032 11.4747 97.9712 11.7024 98.4512 11.9424L99.1709 12.2666L98.3789 15.9746C97.395 15.6867 96.3752 15.543 95.3193 15.543C94.2874 15.543 93.3395 15.8789 92.4756 16.5508C91.6357 17.1987 91.2149 18.2065 91.2148 19.5742C91.2148 22.6462 92.4033 24.1826 94.7793 24.1826C95.4032 24.1826 96.0032 24.1108 96.5791 23.9668C97.1548 23.7989 97.5748 23.6308 97.8389 23.4629L98.2354 23.2471L100.287 25.9824C98.4871 27.9024 96.0748 28.8623 93.0508 28.8623C90.0512 28.8622 87.7233 28.0589 86.0674 26.4512C84.4114 24.8192 83.583 22.5262 83.583 19.5742C83.5831 16.6225 84.4712 14.4505 86.2471 13.0586C88.0231 11.6426 90.2432 10.9346 92.9072 10.9346ZM109.729 10.9346C110.88 10.9346 112.008 11.0307 113.112 11.2227C114.216 11.4147 115.045 11.6068 115.597 11.7988L116.389 12.123L115.488 15.7588C114.121 15.2549 112.957 15.003 111.997 15.0029C111.037 15.0029 110.557 15.3751 110.557 16.1191C110.557 16.479 110.784 16.8272 111.24 17.1631C111.696 17.4751 112.249 17.7866 112.896 18.0986C113.544 18.4106 114.193 18.7707 114.841 19.1787C115.489 19.5627 116.041 20.1029 116.497 20.7988C116.953 21.4707 117.181 22.2387 117.181 23.1025C117.181 24.4705 116.724 25.6105 115.812 26.5225C114.9 27.4345 113.845 28.0585 112.645 28.3945C111.469 28.7065 110.329 28.8623 109.225 28.8623C108.121 28.8623 107.149 28.7905 106.309 28.6465C105.493 28.5025 104.797 28.3346 104.221 28.1426C103.165 27.7346 102.324 27.3502 101.7 26.9902L101.377 26.7744L102.961 23.499C104.401 24.3149 105.613 24.7227 106.597 24.7227C107.58 24.7226 108.072 24.3148 108.072 23.499C108.072 23.091 107.761 22.6703 107.137 22.2383C106.513 21.8064 105.829 21.3986 105.085 21.0146C104.365 20.6307 103.692 20.0429 103.068 19.251C102.444 18.459 102.133 17.5466 102.133 16.5146C102.133 14.6667 102.829 13.2749 104.221 12.3389C105.613 11.4029 107.449 10.9346 109.729 10.9346ZM7.5957 28.5029H0.97168L0 5.13867H8.56836L7.5957 28.5029ZM20.8389 20.5107C20.119 20.5107 19.519 20.6909 19.0391 21.0508C18.5831 21.4108 18.3545 21.8548 18.3545 22.3828C18.3545 22.9108 18.5346 23.3791 18.8945 23.7871C19.2545 24.195 19.7229 24.3984 20.2988 24.3984C21.3786 24.3984 22.3024 24.0988 23.0703 23.499L22.8545 21.123C22.2545 20.7151 21.5828 20.5108 20.8389 20.5107ZM54.1396 20.5107C53.4198 20.5108 52.8198 20.6908 52.3398 21.0508C51.884 21.4108 51.6562 21.8549 51.6562 22.3828C51.6563 22.9108 51.8363 23.3791 52.1963 23.7871C52.5562 24.1948 53.024 24.3983 53.5996 24.3984C54.6795 24.3984 55.6041 24.0989 56.3721 23.499L56.1562 21.123C55.5563 20.715 54.8836 20.5107 54.1396 20.5107ZM41.8486 19.6104H32.6689V16.083H41.8486V19.6104Z" fill="url(#paint0_linear_269_1157)"/>
<defs>
<linearGradient id="paint0_linear_269_1157" x1="0" y1="17.0005" x2="117.181" y2="17.0005" gradientUnits="userSpaceOnUse">
<stop stop-color="#2BB2FE"/>
<stop offset="1" stop-color="#22CAAD"/>
</linearGradient>
</defs>
</svg>
